Simulation
nRows=15
nColumns=15
endheader
time  TH_x TH_y TH_z SC_y  SC_z  SC_x  AC_y  AC_z  AC_x  GH_y  GH_z  GH_yy  EL_x  PS_y
1.9499999999999993  0.000000  0.000000  0.000000  -29.36391484880618  13.55123159924448  23.41742273277995  60.51458691914072  12.323973808749217  4.610191037295404  47.87894967976649  57.17612316400936  -45.237627241488205  22.360102910080077  0.000000
1.9889999999999992  0.000000  0.000000  0.000000  -28.83783720805082  13.130040897895299  22.99223222823785  60.32789611608951  11.933081381686208  3.6481519567150555  48.11158111856969  56.36803637425083  -44.56328485212568  22.570887591686187  0.000000
2.027999999999999  0.000000  0.000000  0.000000  -28.274955093963133  12.655171856906481  22.552189665405816  60.14063105508916  11.5012152859185  2.6187509274834997  48.43575993916723  55.425177036340834  -44.05746396872861  22.776629014534898  0.000000
2.0669999999999993  0.000000  0.000000  0.000000  -27.70267102871584  12.139597376800209  22.10856874539709  59.94804830116776  11.033787234683945  1.542930512756129  48.8484747921118  54.372582748624865  -43.7265335463564  22.963330412545368  0.000000
2.1059999999999994  0.000000  0.000000  0.000000  -27.107172740359864  11.583524109161516  21.61625844563828  59.768128634052545  10.534049379442134  0.4439555892877661  49.262202496014226  53.24669523395799  -43.3289484371325  23.113361367995623  0.000000
2.144999999999999  0.000000  0.000000  0.000000  -26.51409514233269  11.002665413196077  21.084217328742582  59.57224328871505  10.025407352395717  -0.6589789638210073  49.66214444202537  52.066182782722514  -42.84000054618719  23.223645737743073  0.000000
2.1839999999999993  0.000000  0.000000  0.000000  -25.931824098066006  10.395843311110262  20.55748310998608  59.362603391744486  9.53698492944695  -1.756027376910303  50.124765982161634  50.77224549126413  -42.446061910917884  23.286107302896337  0.000000
2.2229999999999994  0.000000  0.000000  0.000000  -25.395951412009076  9.764215942733525  20.0373241346854  59.13533594732843  9.107467152797593  -2.819114045739476  50.65307242355396  49.37059874208443  -42.15293521089664  23.32623058871598  0.000000
2.261999999999999  0.000000  0.000000  0.000000  -24.875288252991496  9.103539366297298  19.248513340122475  58.973860764569245  8.669300909415101  -3.786495804165848  50.803418579615986  48.13144724054256  -41.14444057915535  23.36241061338926  0.000000
2.3009999999999993  0.000000  0.000000  0.000000  -24.45139426141489  8.436723360775757  18.174076224959446  58.9195235847398  8.203695401854379  -4.556289904074597  50.49244952249092  47.072949123848865  -39.34323629045112  23.382849887462484  0.000000
2.339999999999999  0.000000  0.000000  0.000000  -24.210826090890304  7.791375074947579  17.01827026930763  58.917815876167396  7.816889599980448  -5.1430983950200515  50.38327907737967  45.89928615962604  -38.32090754008534  23.42006380797214  0.000000
2.378999999999999  0.000000  0.000000  0.000000  -24.148482215371683  7.175372007388559  15.779486708376147  58.872566352813585  7.541895765054542  -5.578873290924905  50.536311114880505  44.602010895730835  -38.11057551582048  23.5379287394062  0.000000
2.4179999999999993  0.000000  0.000000  0.000000  -24.170765459500803  6.535137663636637  14.304012698432548  58.83978527067619  7.344514728195695  -5.871708624181075  50.14039861171065  43.38098220511032  -36.41050159981085  23.7027156656175  0.000000
2.456999999999999  0.000000  0.000000  0.000000  -24.25422185087717  5.875456971454498  12.605549053871785  58.780055991699975  7.230676495633605  -6.009418989861822  49.14783896127776  42.26209912583526  -33.155201353146985  23.907651133893985  0.000000
2.495999999999999  0.000000  0.000000  0.000000  -24.402043263847293  5.264992898073622  10.850170419521614  58.69339668599494  7.22291168939605  -5.988318739371594  48.31982996996199  40.915925583626354  -30.887731500426128  24.218214062048958  0.000000
